<svg width="62" height="76" viewBox="0 0 62 76" fill="none" xmlns="http://www.w3.org/2000/svg">
<path d="M17.0462 34.4648L16.9496 34.3629L16.8475 34.4593L15.337 35.8859L15.2351 35.9822L15.3311 36.0844L28.1703 49.7627L28.1702 49.7628L28.1734 49.7659C28.6466 50.2391 29.3989 50.2379 29.8711 49.8602L29.8713 49.8605L29.8786 49.8538L61.0038 21.1616C61.3063 20.953 61.3925 20.5624 61.3925 20.2958V15.6805C61.3925 15.3909 61.2726 15.1066 61.0843 14.8947C60.8977 14.6849 60.6347 14.5361 60.3386 14.5329C43.1034 12.2205 32.3701 1.04923 31.9906 0.654268C31.9851 0.648567 31.9818 0.645111 31.9806 0.64396L31.8815 0.743085L31.9806 0.643959C31.7414 0.404686 31.4103 0.288086 31.0945 0.288086C30.7816 0.288086 30.4659 0.403153 30.2651 0.650322C30.264 0.651489 30.2627 0.652804 30.2613 0.654268C29.8818 1.0493 19.1448 12.2244 1.90441 14.5341L1.9044 14.534L1.89996 14.5348C1.34171 14.6278 0.859375 15.0958 0.859375 15.6805V41.9462C0.859375 50.6288 4.48417 58.8897 10.8062 64.7903L10.8072 64.7912C16.781 70.2602 23.5162 73.9658 30.9284 75.5662L30.9431 75.5693H30.9581H30.9586H30.9591H30.9596H30.9601H30.9606H30.9611H30.9616H30.962H30.9625H30.963H30.9635H30.964H30.9645H30.965H30.9655H30.966H30.9665H30.967H30.9675H30.9679H30.9684H30.9689H30.9694H30.9699H30.9704H30.9709H30.9714H30.9719H30.9724H30.9729H30.9734H30.9738H30.9743H30.9748H30.9753H30.9758H30.9763H30.9768H30.9773H30.9778H30.9783H30.9788H30.9793H30.9797H30.9802H30.9807H30.9812H30.9817H30.9822H30.9827H30.9832H30.9837H30.9842H30.9847H30.9852H30.9856H30.9861H30.9866H30.9871H30.9876H30.9881H30.9886H30.9891H30.9896H30.9901H30.9906H30.9911H30.9915H30.992H30.9925H30.993H30.9935H30.994H30.9945H30.995H30.9955H30.996H30.9965H30.997H30.9974H30.9979H30.9984H30.9989H30.9994H30.9999H31.0004H31.0009H31.0014H31.0019H31.0024H31.0029H31.0033H31.0038H31.0043H31.0048H31.0053H31.0058H31.0063H31.0068H31.0073H31.0078H31.0083H31.0088H31.0092H31.0097H31.0102H31.0107H31.0112H31.0117H31.0122H31.0127H31.0132H31.0137H31.0142H31.0147H31.0151H31.0156H31.0161H31.0166H31.0171H31.0176H31.0181H31.0186H31.0191H31.0196H31.0201H31.0206H31.021H31.0215H31.022H31.0225H31.023H31.0235H31.024H31.0245H31.025H31.0255H31.026H31.0265H31.0269H31.0274H31.0279H31.0284H31.0289H31.0294H31.0299H31.0304H31.0309H31.0314H31.0319H31.0324H31.0328H31.0333H31.0338H31.0343H31.0348H31.0353H31.0358H31.0363H31.0368H31.0373H31.0378H31.0383H31.0387H31.0392H31.0397H31.0402H31.0407H31.0412H31.0417H31.0422H31.0427H31.0432H31.0437H31.0442H31.0446H31.0451H31.0456H31.0461H31.0466H31.0471H31.0476H31.0481H31.0486H31.0491H31.0496H31.0501H31.0505H31.051H31.0515H31.052H31.0525H31.053H31.0535H31.054H31.0545H31.055H31.0555H31.056H31.0564H31.0569H31.0574H31.0579H31.0584H31.0589H31.0594H31.0599H31.0604H31.0609H31.0614H31.0619H31.0623H31.0628H31.0633H31.0638H31.0643H31.0648H31.0653H31.0658H31.0663H31.0668H31.0673H31.0678H31.0683H31.0687H31.0692H31.0697H31.0702H31.0707H31.0712H31.0717H31.0722H31.0727H31.0732H31.0737H31.0742H31.0746H31.0751H31.0756H31.0761H31.0766H31.0771H31.0776H31.0781H31.0786H31.0791H31.0796H31.0801H31.0805H31.081H31.0815H31.082H31.0825H31.083H31.0835H31.084H31.0845H31.085H31.0855H31.086H31.0864H31.0869H31.0874H31.0879H31.0884H31.0889H31.0894H31.0899H31.0904H31.0909H31.0914H31.0919H31.0923H31.0928H31.0933H31.0938H31.0943H31.0948H31.0953H31.0958H31.0963H31.0968H31.0973H31.0978H31.0982H31.0987H31.0992H31.0997H31.1002H31.1007H31.1012H31.1017H31.1022H31.1027H31.1032H31.1037H31.1041H31.1046H31.1051H31.1056H31.1061H31.1066H31.1071H31.1076H31.1081H31.1086H31.1091H31.1096H31.11H31.1105H31.111H31.1115H31.112H31.1125H31.113H31.1135H31.114H31.1145H31.115H31.1155H31.1159H31.1164H31.1169H31.1174H31.1179H31.1184H31.1189H31.1194H31.1199H31.1204H31.1209H31.1214H31.1218H31.1223H31.1228H31.1233H31.1238H31.1243H31.1248H31.1253H31.1258H31.1263H31.1268H31.1273H31.1277H31.1282H31.1287H31.1292H31.1297H31.1302H31.1307H31.1312H31.1317H31.1322H31.1327H31.1332H31.1336H31.1341H31.1346H31.1351H31.1356H31.1361H31.1366H31.1371H31.1376H31.1381H31.1386H31.1391H31.1395H31.14H31.1405H31.141H31.1415H31.142H31.1425H31.143H31.1435H31.144H31.1445H31.145H31.1454H31.1459H31.1464H31.1469H31.1474H31.1479H31.1484H31.1489H31.1494H31.1499H31.1504H31.1509H31.1513H31.1518H31.1523H31.1528H31.1533H31.1538H31.1543H31.1548H31.1553H31.1558H31.1563H31.1568H31.1572H31.1577H31.1582H31.1587H31.1592H31.1597H31.1602H31.1607H31.1612H31.1617H31.1622H31.1627H31.1631H31.1636H31.1641H31.1646H31.1651H31.1656H31.1661H31.1666H31.1671H31.1676H31.1681H31.1686H31.169H31.1695H31.17H31.1705H31.171H31.1715H31.172H31.1725H31.173H31.1735H31.174H31.1745H31.1749H31.1754H31.1759H31.1764H31.1769H31.1774H31.1779H31.1784H31.1789H31.1794H31.1799H31.1804H31.1808H31.1813H31.1818H31.1823H31.1828H31.1833H31.1838H31.1843H31.1848H31.1853H31.1858H31.1863H31.1868H31.1872H31.1877H31.1882H31.1887H31.1892H31.1897H31.1902H31.1907H31.1912H31.1917H31.1922H31.1926H31.1931H31.1936H31.1941H31.1946H31.1951H31.1956H31.1961H31.1966H31.1971H31.1976H31.1981H31.1986H31.199H31.1995H31.2H31.2005H31.201H31.2015H31.202H31.2025H31.203H31.2035H31.204H31.2045H31.2049H31.2054H31.2059H31.2064H31.2069H31.2074H31.2079H31.2084H31.2089H31.2094H31.2099H31.2104H31.2108H31.2113H31.2118H31.2123H31.2128H31.2133H31.2138H31.2143H31.2148H31.2153H31.2158H31.2163H31.2167H31.2172H31.2177H31.2182H31.2187H31.2192H31.2197H31.2202H31.2207H31.2212H31.2217H31.2222H31.2226H31.2231H31.2236H31.2241H31.2246H31.2251H31.2256H31.2261H31.2266H31.2271H31.2276H31.2281H31.2285H31.229H31.2295H31.23H31.2305H31.231H31.2315H31.232H31.2325H31.233H31.2335H31.234H31.2344H31.2349H31.2354H31.2359H31.2364H31.2369H31.2374H31.2379H31.2384H31.2389H31.2394H31.2399H31.2403H31.2408H31.2413H31.2418H31.2423H31.2428H31.2433H31.2438H31.2443H31.2448H31.2453H31.2458H31.2462H31.2467H31.2472H31.2477H31.2482H31.2487H31.2492H31.2497H31.2502H31.2507H31.2512H31.2517H31.2521H31.2526H31.2531H31.2536H31.2541H31.2546H31.2551H31.2556H31.2561H31.2566H31.2571H31.2576H31.258H31.2585H31.259H31.2595H31.26H31.2605H31.261H31.2615H31.262H31.2625H31.263H31.2635H31.2639H31.2644H31.2649H31.2654H31.2659H31.2664H31.2669H31.2674H31.2679H31.2684H31.2689H31.2694H31.2698H31.2703H31.2708H31.2713H31.2718H31.2723H31.2728H31.2733H31.2738H31.2743H31.2748H31.2753H31.2757H31.2762H31.2767H31.2772H31.2777H31.2782H31.2787H31.2792H31.2797H31.2802H31.2807H31.2812H31.2816H31.2821H31.2826H31.2831H31.2836H31.2841H31.2846H31.2851H31.2856H31.2861H31.2866H31.2871H31.2875H31.288H31.2885H31.289H31.2895H31.29H31.2905H31.291H31.2915H31.292H31.2925H31.293H31.2934H31.2939H31.2944H31.2949H31.2954H31.2959H31.2964H31.2969H31.2974H31.2979H31.2984H31.2989H31.2993H31.2998H31.3003H31.3008H31.3013H31.3018H31.3023H31.3028H31.3033H31.3038H31.3043H31.3048H31.3053H31.3057H31.3062H31.3067H31.3072H31.3077H31.3082H31.3087H31.3092H31.3097H31.3102H31.3107H31.3111H31.3116H31.3121H31.3126H31.3131H31.3136H31.3141H31.3146H31.3151H31.3156H31.3161H31.3166H31.3171H31.3175H31.318H31.3185H31.319H31.3195H31.32H31.3205H31.321H31.3215H31.322H31.3225H31.323H31.3234H31.3239H31.3244H31.3249H31.3254H31.3259H31.3264H31.3269H31.3274H31.3279H31.3284H31.3289H31.3293H31.3298H31.3303H31.3308H31.3313H31.3318H31.3323H31.3328H31.3333H31.3338H31.3343H31.3348H31.3352H31.3357H31.3362H31.3367H31.3372H31.3377H31.3382H31.3387H31.3392H31.3397H31.3402H31.3407H31.3411H31.3416H31.3421H31.3426H31.3431H31.3436H31.3441H31.3446H31.3451H31.3456H31.3461H31.3466H31.347H31.3475H31.348H31.3485H31.349H31.3495H31.35H31.3505H31.351H31.3515H31.352H31.3525H31.3529H31.3534H31.3539H31.3544H31.3549H31.3554H31.3559H31.3564H31.3569H31.3574H31.3579H31.3584H31.3588H31.3593H31.3598H31.3603H31.3608H31.3613H31.3618H31.3623H31.3628H31.3633H31.3638H31.3643H31.3647H31.3652H31.3657H31.3662H31.3667H31.3672H31.3677H31.3682H31.3687H31.3692H31.3697H31.3702H31.3706H31.3711H31.3716H31.3721H31.3726H31.3731H31.3736H31.3741H31.3746H31.3751H31.3756H31.3761H31.3765H31.377H31.3775H31.378H31.3785H31.379H31.3795H31.38H31.3805H31.381H31.3815H31.382H31.3824H31.3829H31.3834H31.3839H31.3844H31.3849H31.3854H31.3859H31.3864H31.3869H31.3874H31.3879H31.3883H31.3888H31.3893H31.3898H31.3903H31.3908H31.3913H31.3918H31.3923H31.3928H31.3933H31.3938H31.3942H31.3947H31.3952H31.3957H31.3962H31.3967H31.3972H31.3977H31.3982H31.3987H31.3992H31.3997H31.4001H31.4006H31.4011H31.4016H31.4021H31.4026H31.4031H31.4036H31.4041H31.4046H31.4051H31.4056H31.406H31.4065H31.407H31.4075H31.408H31.4085H31.409H31.4095H31.41H31.4105H31.411H31.4115H31.4119H31.4124H31.4129H31.4134H31.4139H31.4144H31.4149H31.4154H31.4159H31.4164H31.4169H31.4174H31.4179H31.4183H31.4188H31.4193H31.4198H31.4203H31.4208H31.4213H31.4218H31.4223H31.4228H31.4233H31.4237H31.4242H31.4247H31.4252H31.4257H31.4262H31.4267H31.4272H31.4277H31.4282H31.4287H31.4292H31.4297H31.4301H31.4306H31.4311H31.4316H31.4321H31.4326H31.4331H31.4336H31.4341H31.4346H31.4351H31.4356H31.436H31.4365H31.437H31.4375H31.438H31.4385H31.439H31.4395H31.44H31.4405H31.441H31.4415H31.4419H31.4424H31.4429H31.4434H31.4439H31.4444H31.4449H31.4454H31.4459H31.4464H31.4469H31.4474H31.4478H31.4483H31.4488H31.4493H31.4498H31.4503H31.4508H31.4513H31.4518H31.4523H31.4528H31.4533H31.4537H31.4542H31.4547H31.4552H31.4557H31.4562H31.4567H31.4572H31.4577H31.4582H31.4587H31.4592H31.4596H31.4601H31.4606H31.4611H31.4616H31.4774L31.4928 75.5658C38.903 73.8817 45.6379 70.2609 51.6126 64.7912L51.6128 64.7909C57.9359 58.9737 61.5603 50.6282 61.5603 41.9462V30.1979V30.0573H61.4197H59.3218H59.1812V30.1979V42.0301C59.1812 50.0472 55.8407 57.7294 49.9965 63.0728C44.3149 68.1694 37.9692 71.5948 31.1259 73.1864C24.2824 71.5947 17.9378 68.1693 12.425 62.9906L12.4244 62.99C6.5789 57.5621 3.23853 49.8791 3.23853 41.9462V16.724C18.3106 14.3688 28.2232 5.91067 31.1259 3.12067C34.0287 5.91067 43.9413 14.3688 59.0134 16.724V19.7306L29.1188 47.2035L17.0462 34.4648Z" fill="#F78E31" stroke="#F78E31" stroke-width="0.28125"/>
</svg>
