<svg width="75" height="76" viewBox="0 0 75 76" fill="none" xmlns="http://www.w3.org/2000/svg">
<path d="M60.8221 51.7981L56.8135 56.8089H56.5104V57.158C54.0182 59.8153 50.9901 61.3662 47.9167 61.3662C44.8221 61.3662 41.4313 60.2966 39.2029 58.0682L17.3279 36.1932C15.1009 33.9662 14.0625 30.6091 14.0625 27.512C14.0625 24.4225 15.5979 21.3818 18.273 18.8857H18.2817L18.4243 18.7716L23.6327 14.6049L23.6327 14.605L23.639 14.5998L24.014 14.29L24.3584 14.6509L34.767 26.1003L35.0955 26.4781L34.7554 26.8182L34.7541 26.8196L30.2944 31.3118L29.9288 31.68L30.2958 32.047L43.3817 45.1329L43.75 45.5012L44.1183 45.1329L48.9421 40.3091L49.3233 40.6571L49.3241 40.6578L61.1386 51.3983L60.8238 51.7961L60.8221 51.7981ZM24.2455 16.0934L23.9181 15.7343L23.5372 16.0362L19.1426 19.5192L19.1287 19.5303L19.1155 19.5423C19.0956 19.5604 19.0799 19.5769 19.0739 19.5832L19.0727 19.5843L19.0653 19.5917L19.0396 19.6174C16.5179 21.9601 15.1042 24.7502 15.1042 27.512C15.1042 30.3192 16.1507 33.5269 18.0887 35.465L39.9637 57.34C41.9018 59.278 45.1095 60.3245 47.9167 60.3245C50.7095 60.3245 53.4946 58.8875 55.8527 56.3145L55.8645 56.3016L55.8755 56.2879L59.3911 51.8934L59.6966 51.5115L59.3347 51.1826L49.3412 42.1006L48.9737 41.7666L48.6226 42.1177L43.75 46.9903L28.4303 31.6706L28.7904 31.2942L33.311 26.7736L33.6627 26.4219L33.3276 26.0544L24.2455 16.0934ZM0.520833 37.9287C0.520833 17.518 17.0893 0.949544 37.5 0.949544C57.9107 0.949544 74.4792 17.518 74.4792 37.9287C74.4792 58.3394 57.9107 74.9079 37.5 74.9079C17.0893 74.9079 0.520833 58.3394 0.520833 37.9287ZM73.4375 37.9287C73.4375 18.0686 57.3601 1.99121 37.5 1.99121C17.6399 1.99121 1.5625 18.0686 1.5625 37.9287C1.5625 57.7888 17.6399 73.8662 37.5 73.8662C57.3601 73.8662 73.4375 57.7888 73.4375 37.9287Z" fill="#F78E31" stroke="#F78E31" stroke-width="1.04167"/>
</svg>
