<svg width="74" height="76" viewBox="0 0 74 76" fill="none" xmlns="http://www.w3.org/2000/svg">
<mask id="path-1-inside-1_1019_5093" fill="white">
<path d="M13.0229 75.4287V59.0416H3.95029C2.9024 59.0404 1.8978 58.6234 1.15713 57.8821C0.416465 57.1409 0.000286935 56.1359 0 55.088V4.37899C0.00114902 3.33167 0.417708 2.32756 1.15828 1.58699C1.89886 0.846418 2.90296 0.42986 3.95029 0.428711H69.8463C70.8936 0.42986 71.8977 0.846418 72.6383 1.58699C73.3789 2.32756 73.7954 3.33167 73.7966 4.37899V55.088C73.7954 56.1353 73.3789 57.1394 72.6383 57.88C71.8977 58.6206 70.8936 59.0371 69.8463 59.0383H33.0696L13.0229 75.4287ZM3.95029 2.5992C3.47834 2.59948 3.02581 2.78709 2.6921 3.1208C2.35838 3.45452 2.17078 3.90705 2.17049 4.37899V55.088C2.17078 55.56 2.35838 56.0125 2.6921 56.3462C3.02581 56.6799 3.47834 56.8675 3.95029 56.8678H15.1934V70.8512L32.2958 56.8678H69.8452C70.3174 56.8678 70.7702 56.6803 71.1041 56.3466C71.4381 56.0128 71.6258 55.5601 71.6261 55.088V4.37899C71.6258 3.90705 71.4382 3.45452 71.1045 3.1208C70.7708 2.78709 70.3183 2.59948 69.8463 2.5992H3.95029Z"/>
<path d="M41.782 50.3497H32.0148V42.97C31.6697 42.8441 31.3278 42.7009 30.9903 42.5435L25.7746 47.7603L18.8681 40.8538L24.0827 35.6381C23.9254 35.3006 23.7821 34.9588 23.6562 34.6137H16.2787V24.8465H23.6584C23.7843 24.5014 23.9275 24.1595 24.0849 23.822L18.8681 18.6063L25.7746 11.6999L30.9903 16.9144C31.3278 16.7571 31.6697 16.6138 32.0148 16.4879V9.11047H41.782V16.4901C42.1271 16.616 42.4689 16.7593 42.8064 16.9166L48.0221 11.7075L54.9286 18.6139L49.7194 23.8296C49.8768 24.1671 50.02 24.509 50.1459 24.8541H57.518V34.6213H50.1383C50.0125 34.9664 49.8692 35.3082 49.7118 35.6457L54.9264 40.8614L48.0221 47.7603L42.8064 42.5511C42.4689 42.7085 42.1271 42.8517 41.782 42.9776V50.3497ZM34.1853 48.1792H39.6115V41.3769L40.3907 41.1479C41.1227 40.9308 41.8295 40.6365 42.4993 40.2699L43.2123 39.8814L48.0221 44.6912L51.8595 40.8538L47.0497 36.044L47.4383 35.331C47.8048 34.6612 48.0991 33.9544 48.3162 33.2224L48.5452 32.4432H55.3475V27.017H48.5452L48.3162 26.2378C48.0991 25.5058 47.8048 24.7989 47.4383 24.1291L47.0497 23.4161L51.8595 18.6063L48.0221 14.7689L43.2123 19.5787L42.4993 19.1902C41.8295 18.8237 41.1227 18.5294 40.3907 18.3122L39.6115 18.0833V11.281H34.1853V18.0833L33.406 18.3122C32.6741 18.5294 31.9672 18.8237 31.2974 19.1902L30.5844 19.5787L25.7746 14.7689L21.9372 18.6063L26.747 23.4161L26.3585 24.1291C25.992 24.7989 25.6976 25.5058 25.4805 26.2378L25.2515 27.017H18.4492V32.4432H25.2515L25.4805 33.2224C25.6976 33.9544 25.992 34.6612 26.3585 35.331L26.747 36.044L21.9372 40.8538L25.7746 44.6912L30.5844 39.8814L31.2974 40.2699C31.9672 40.6365 32.6741 40.9308 33.406 41.1479L34.1853 41.3769V48.1792Z"/>
</mask>
<path d="M13.0229 75.4287V59.0416H3.95029C2.9024 59.0404 1.8978 58.6234 1.15713 57.8821C0.416465 57.1409 0.000286935 56.1359 0 55.088V4.37899C0.00114902 3.33167 0.417708 2.32756 1.15828 1.58699C1.89886 0.846418 2.90296 0.42986 3.95029 0.428711H69.8463C70.8936 0.42986 71.8977 0.846418 72.6383 1.58699C73.3789 2.32756 73.7954 3.33167 73.7966 4.37899V55.088C73.7954 56.1353 73.3789 57.1394 72.6383 57.88C71.8977 58.6206 70.8936 59.0371 69.8463 59.0383H33.0696L13.0229 75.4287ZM3.95029 2.5992C3.47834 2.59948 3.02581 2.78709 2.6921 3.1208C2.35838 3.45452 2.17078 3.90705 2.17049 4.37899V55.088C2.17078 55.56 2.35838 56.0125 2.6921 56.3462C3.02581 56.6799 3.47834 56.8675 3.95029 56.8678H15.1934V70.8512L32.2958 56.8678H69.8452C70.3174 56.8678 70.7702 56.6803 71.1041 56.3466C71.4381 56.0128 71.6258 55.5601 71.6261 55.088V4.37899C71.6258 3.90705 71.4382 3.45452 71.1045 3.1208C70.7708 2.78709 70.3183 2.59948 69.8463 2.5992H3.95029Z" fill="#F78E31"/>
<path d="M41.782 50.3497H32.0148V42.97C31.6697 42.8441 31.3278 42.7009 30.9903 42.5435L25.7746 47.7603L18.8681 40.8538L24.0827 35.6381C23.9254 35.3006 23.7821 34.9588 23.6562 34.6137H16.2787V24.8465H23.6584C23.7843 24.5014 23.9275 24.1595 24.0849 23.822L18.8681 18.6063L25.7746 11.6999L30.9903 16.9144C31.3278 16.7571 31.6697 16.6138 32.0148 16.4879V9.11047H41.782V16.4901C42.1271 16.616 42.4689 16.7593 42.8064 16.9166L48.0221 11.7075L54.9286 18.6139L49.7194 23.8296C49.8768 24.1671 50.02 24.509 50.1459 24.8541H57.518V34.6213H50.1383C50.0125 34.9664 49.8692 35.3082 49.7118 35.6457L54.9264 40.8614L48.0221 47.7603L42.8064 42.5511C42.4689 42.7085 42.1271 42.8517 41.782 42.9776V50.3497ZM34.1853 48.1792H39.6115V41.3769L40.3907 41.1479C41.1227 40.9308 41.8295 40.6365 42.4993 40.2699L43.2123 39.8814L48.0221 44.6912L51.8595 40.8538L47.0497 36.044L47.4383 35.331C47.8048 34.6612 48.0991 33.9544 48.3162 33.2224L48.5452 32.4432H55.3475V27.017H48.5452L48.3162 26.2378C48.0991 25.5058 47.8048 24.7989 47.4383 24.1291L47.0497 23.4161L51.8595 18.6063L48.0221 14.7689L43.2123 19.5787L42.4993 19.1902C41.8295 18.8237 41.1227 18.5294 40.3907 18.3122L39.6115 18.0833V11.281H34.1853V18.0833L33.406 18.3122C32.6741 18.5294 31.9672 18.8237 31.2974 19.1902L30.5844 19.5787L25.7746 14.7689L21.9372 18.6063L26.747 23.4161L26.3585 24.1291C25.992 24.7989 25.6976 25.5058 25.4805 26.2378L25.2515 27.017H18.4492V32.4432H25.2515L25.4805 33.2224C25.6976 33.9544 25.992 34.6612 26.3585 35.331L26.747 36.044L21.9372 40.8538L25.7746 44.6912L30.5844 39.8814L31.2974 40.2699C31.9672 40.6365 32.6741 40.9308 33.406 41.1479L34.1853 41.3769V48.1792Z" fill="#F78E31"/>
<path d="M13.0229 75.4287V59.0416H3.95029C2.9024 59.0404 1.8978 58.6234 1.15713 57.8821C0.416465 57.1409 0.000286935 56.1359 0 55.088V4.37899C0.00114902 3.33167 0.417708 2.32756 1.15828 1.58699C1.89886 0.846418 2.90296 0.42986 3.95029 0.428711H69.8463C70.8936 0.42986 71.8977 0.846418 72.6383 1.58699C73.3789 2.32756 73.7954 3.33167 73.7966 4.37899V55.088C73.7954 56.1353 73.3789 57.1394 72.6383 57.88C71.8977 58.6206 70.8936 59.0371 69.8463 59.0383H33.0696L13.0229 75.4287ZM3.95029 2.5992C3.47834 2.59948 3.02581 2.78709 2.6921 3.1208C2.35838 3.45452 2.17078 3.90705 2.17049 4.37899V55.088C2.17078 55.56 2.35838 56.0125 2.6921 56.3462C3.02581 56.6799 3.47834 56.8675 3.95029 56.8678H15.1934V70.8512L32.2958 56.8678H69.8452C70.3174 56.8678 70.7702 56.6803 71.1041 56.3466C71.4381 56.0128 71.6258 55.5601 71.6261 55.088V4.37899C71.6258 3.90705 71.4382 3.45452 71.1045 3.1208C70.7708 2.78709 70.3183 2.59948 69.8463 2.5992H3.95029Z" stroke="#F78E31" stroke-width="2.17049" mask="url(#path-1-inside-1_1019_5093)"/>
<path d="M41.782 50.3497H32.0148V42.97C31.6697 42.8441 31.3278 42.7009 30.9903 42.5435L25.7746 47.7603L18.8681 40.8538L24.0827 35.6381C23.9254 35.3006 23.7821 34.9588 23.6562 34.6137H16.2787V24.8465H23.6584C23.7843 24.5014 23.9275 24.1595 24.0849 23.822L18.8681 18.6063L25.7746 11.6999L30.9903 16.9144C31.3278 16.7571 31.6697 16.6138 32.0148 16.4879V9.11047H41.782V16.4901C42.1271 16.616 42.4689 16.7593 42.8064 16.9166L48.0221 11.7075L54.9286 18.6139L49.7194 23.8296C49.8768 24.1671 50.02 24.509 50.1459 24.8541H57.518V34.6213H50.1383C50.0125 34.9664 49.8692 35.3082 49.7118 35.6457L54.9264 40.8614L48.0221 47.7603L42.8064 42.5511C42.4689 42.7085 42.1271 42.8517 41.782 42.9776V50.3497ZM34.1853 48.1792H39.6115V41.3769L40.3907 41.1479C41.1227 40.9308 41.8295 40.6365 42.4993 40.2699L43.2123 39.8814L48.0221 44.6912L51.8595 40.8538L47.0497 36.044L47.4383 35.331C47.8048 34.6612 48.0991 33.9544 48.3162 33.2224L48.5452 32.4432H55.3475V27.017H48.5452L48.3162 26.2378C48.0991 25.5058 47.8048 24.7989 47.4383 24.1291L47.0497 23.4161L51.8595 18.6063L48.0221 14.7689L43.2123 19.5787L42.4993 19.1902C41.8295 18.8237 41.1227 18.5294 40.3907 18.3122L39.6115 18.0833V11.281H34.1853V18.0833L33.406 18.3122C32.6741 18.5294 31.9672 18.8237 31.2974 19.1902L30.5844 19.5787L25.7746 14.7689L21.9372 18.6063L26.747 23.4161L26.3585 24.1291C25.992 24.7989 25.6976 25.5058 25.4805 26.2378L25.2515 27.017H18.4492V32.4432H25.2515L25.4805 33.2224C25.6976 33.9544 25.992 34.6612 26.3585 35.331L26.747 36.044L21.9372 40.8538L25.7746 44.6912L30.5844 39.8814L31.2974 40.2699C31.9672 40.6365 32.6741 40.9308 33.406 41.1479L34.1853 41.3769V48.1792Z" stroke="#F78E31" stroke-width="2.17049" mask="url(#path-1-inside-1_1019_5093)"/>
</svg>
