<svg width="42" height="48" viewBox="0 0 42 48" fill="none" xmlns="http://www.w3.org/2000/svg">
<path d="M21 0C9.75193 0 0.594238 9.15769 0.594238 20.4058C0.594238 25.4553 2.44673 30.0863 5.48937 33.647L5.49875 33.6564L5.50578 33.6658C5.50578 33.6658 14.1866 43.5711 17.2771 46.5202C19.3466 48.4933 22.6511 48.4933 24.7206 46.5202C28.2433 43.1602 36.4966 33.6611 36.4966 33.6611L36.5013 33.654L36.5083 33.647C39.5536 30.0863 41.4058 25.4553 41.4058 20.4058C41.4058 9.15769 32.2481 0 21 0ZM21 3.60102C30.3017 3.60102 37.8048 11.104 37.8048 20.4058C37.8048 24.5772 36.2846 28.3671 33.77 31.3073C33.7537 31.326 25.3093 40.9838 22.2355 43.9155C21.5227 44.5951 20.475 44.5951 19.7622 43.9155C17.1932 41.4642 8.25372 31.3368 8.22765 31.3073L8.2253 31.3049C5.71408 28.365 4.19526 24.576 4.19526 20.4058C4.19526 11.104 11.6983 3.60102 21 3.60102ZM21 13.2037C18.7494 13.2037 16.8334 14.1125 15.6032 15.4966C14.3729 16.8806 13.798 18.6553 13.798 20.4058C13.798 22.1563 14.3729 23.9309 15.6032 25.315C16.8334 26.699 18.7494 27.6078 21 27.6078C23.2506 27.6078 25.1666 26.699 26.3968 25.315C27.6271 23.9309 28.202 22.1563 28.202 20.4058C28.202 18.6553 27.6271 16.8806 26.3968 15.4966C25.1666 14.1125 23.2506 13.2037 21 13.2037ZM21 16.8047C22.3504 16.8047 23.1352 17.2463 23.7055 17.8879C24.2757 18.5294 24.601 19.4555 24.601 20.4058C24.601 21.356 24.2757 22.2821 23.7055 22.9237C23.1352 23.5652 22.3504 24.0068 21 24.0068C19.6496 24.0068 18.8648 23.5652 18.2946 22.9237C17.7243 22.2821 17.399 21.356 17.399 20.4058C17.399 19.4555 17.7243 18.5294 18.2946 17.8879C18.8648 17.2463 19.6496 16.8047 21 16.8047Z" fill="#F78E31"/>
</svg>
