<svg width="48" height="48" viewBox="0 0 48 48" fill="none" xmlns="http://www.w3.org/2000/svg">
<path d="M28.2022 0.00137676C27.9637 -0.00199623 27.7269 0.0420659 27.5056 0.131003C27.2842 0.21994 27.0828 0.351977 26.9129 0.519443C26.7431 0.686908 26.6082 0.886461 26.5162 1.1065C26.4241 1.32655 26.3767 1.56269 26.3767 1.80122C26.3767 2.03974 26.4241 2.27589 26.5162 2.49593C26.6082 2.71597 26.7431 2.91553 26.9129 3.08299C27.0828 3.25046 27.2842 3.3825 27.5056 3.47143C27.7269 3.56037 27.9637 3.60443 28.2022 3.60106C37.1693 3.60106 44.4007 10.8325 44.4007 19.7996C44.3973 20.0381 44.4414 20.2749 44.5303 20.4962C44.6192 20.7176 44.7513 20.919 44.9187 21.0889C45.0862 21.2587 45.2857 21.3936 45.5058 21.4856C45.7258 21.5777 45.962 21.6251 46.2005 21.6251C46.439 21.6251 46.6752 21.5777 46.8952 21.4856C47.1153 21.3936 47.3148 21.2587 47.4823 21.0889C47.6497 20.919 47.7818 20.7176 47.8707 20.4962C47.9596 20.2749 48.0037 20.0381 48.0003 19.7996C48.0003 8.88693 39.1148 0.00137676 28.2022 0.00137676ZM12.0529 0.0177816C11.263 -0.039679 10.4537 0.0410512 9.66014 0.275571H9.65779L6.81978 1.1169C3.79311 2.01203 1.42826 4.41348 0.628162 7.44447C-1.14837 14.1852 0.883913 22.1638 6.17296 31.1447C11.4546 40.1133 17.4728 45.8132 24.2697 47.6737C27.3306 48.5115 30.6317 47.7112 32.9502 45.5575L35.1109 43.5538C37.5287 41.3089 37.8892 37.5699 35.9358 34.9131L32.8142 30.6737C31.141 28.4009 28.1913 27.4332 25.479 28.2481L20.5951 29.7105C20.3901 29.7703 19.8994 29.4911 19.4725 29.1222L19.4702 29.1199C18.7097 28.4587 17.6562 27.1222 16.529 25.2109V25.2085C15.3204 23.1558 14.8049 21.8134 14.598 21.0206C14.3909 20.2275 14.4412 20.131 14.4714 19.8629C14.4871 19.7291 14.5507 19.6052 14.6589 19.5067L14.6612 19.5043L18.3031 16.1742C20.3896 14.2668 21.0194 11.2186 19.8428 8.65374L17.6446 3.86353V3.86119C16.6107 1.60767 14.4218 0.190115 12.0529 0.0177816ZM11.7928 3.60809C12.8945 3.69041 13.909 4.35125 14.373 5.3634L16.5689 10.1536C17.1009 11.3132 16.8341 12.6402 15.8728 13.5189L12.2333 16.8468C11.4868 17.5275 11.0093 18.4556 10.8952 19.4575V19.4598C10.8654 19.7233 10.7952 20.703 11.1155 21.9299C11.4358 23.1568 12.097 24.7796 13.4262 27.0365H13.4285C14.6687 29.1399 15.8408 30.7379 17.1102 31.8407H17.1126C17.5248 32.1976 19.2525 33.8535 21.6028 33.1672L21.6098 33.1648L26.5148 31.6954C27.7885 31.3128 29.1504 31.7697 29.9153 32.8086L33.0369 37.0481C33.9208 38.2524 33.7664 39.8894 32.6619 40.9149L30.5012 42.921C29.1193 44.2052 27.0673 44.7065 25.2189 44.2006C19.7241 42.6966 14.2868 37.8282 9.2758 29.3191C4.2578 20.7984 2.68833 13.751 4.10831 8.36314C4.5777 6.58495 6.01587 5.10888 7.84156 4.56894L10.6796 3.72761C11.0493 3.61836 11.4255 3.58065 11.7928 3.60809ZM28.2022 7.20074C27.9637 7.19737 27.7269 7.24143 27.5056 7.33036C27.2842 7.4193 27.0828 7.55134 26.9129 7.7188C26.7431 7.88627 26.6082 8.08582 26.5162 8.30587C26.4241 8.52591 26.3767 8.76206 26.3767 9.00058C26.3767 9.2391 26.4241 9.47525 26.5162 9.69529C26.6082 9.91534 26.7431 10.1149 26.9129 10.2824C27.0828 10.4498 27.2842 10.5819 27.5056 10.6708C27.7269 10.7597 27.9637 10.8038 28.2022 10.8004C33.1943 10.8004 37.2013 14.8075 37.2013 19.7996C37.198 20.0381 37.242 20.2749 37.331 20.4962C37.4199 20.7176 37.5519 20.919 37.7194 21.0889C37.8869 21.2587 38.0864 21.3936 38.3065 21.4856C38.5265 21.5777 38.7626 21.6251 39.0012 21.6251C39.2397 21.6251 39.4758 21.5777 39.6959 21.4856C39.9159 21.3936 40.1155 21.2587 40.2829 21.0889C40.4504 20.919 40.5824 20.7176 40.6714 20.4962C40.7603 20.2749 40.8044 20.0381 40.801 19.7996C40.801 12.8624 35.1393 7.20074 28.2022 7.20074ZM28.2022 14.4001C27.9637 14.3967 27.7269 14.4408 27.5056 14.5297C27.2842 14.6187 27.0828 14.7507 26.9129 14.9182C26.7431 15.0856 26.6082 15.2852 26.5162 15.5052C26.4241 15.7253 26.3767 15.9614 26.3767 16.1999C26.3767 16.4385 26.4241 16.6746 26.5162 16.8947C26.6082 17.1147 26.7431 17.3143 26.9129 17.4817C27.0828 17.6492 27.2842 17.7812 27.5056 17.8702C27.7269 17.9591 27.9637 18.0032 28.2022 17.9998C29.2179 17.9998 30.002 18.7839 30.002 19.7996C29.9986 20.0381 30.0427 20.2749 30.1316 20.4962C30.2206 20.7176 30.3526 20.919 30.5201 21.0889C30.6875 21.2587 30.8871 21.3936 31.1071 21.4856C31.3272 21.5777 31.5633 21.6251 31.8018 21.6251C32.0404 21.6251 32.2765 21.5777 32.4965 21.4856C32.7166 21.3936 32.9161 21.2587 33.0836 21.0889C33.2511 20.919 33.3831 20.7176 33.472 20.4962C33.561 20.2749 33.605 20.0381 33.6017 19.7996C33.6017 16.8389 31.1629 14.4001 28.2022 14.4001Z" fill="#F78E31"/>
</svg>
