<svg width="60" height="48" viewBox="0 0 60 48" fill="none" xmlns="http://www.w3.org/2000/svg">
<path d="M9.74993 0C4.39199 0 -0.00012207 4.39209 -0.00012207 9.75V38.25C-0.00012207 43.6079 4.39199 48 9.74993 48H50.2501C55.6081 48 60.0002 43.6079 60.0002 38.25V9.75C60.0002 4.39209 55.6081 0 50.2501 0H9.74993ZM9.74993 4.5H50.2501C53.1752 4.5 55.5002 6.82491 55.5002 9.75V11.4082L30 25.1924L4.4999 11.4082V9.75C4.4999 6.82491 6.82482 4.5 9.74993 4.5ZM4.4999 16.5234L28.9307 29.7305C29.2592 29.9079 29.6267 30.0008 30 30.0008C30.3734 30.0008 30.7409 29.9079 31.0694 29.7305L55.5002 16.5234V38.25C55.5002 41.1751 53.1752 43.5 50.2501 43.5H9.74993C6.82482 43.5 4.4999 41.1751 4.4999 38.25V16.5234Z" fill="#F78E31"/>
</svg>
