<svg width="38" height="38" viewBox="0 0 38 38" fill="none" xmlns="http://www.w3.org/2000/svg">
<g clip-path="url(#clip0_1306_5026)">
<path d="M0 0V12.6667H3.16667V5.39323L13.112 15.388L15.388 13.112L5.39323 3.16667H12.6667V0H0ZM25.3333 0V3.16667H32.6068L22.612 13.112L24.888 15.388L34.8333 5.39323V12.6667H38V0H25.3333ZM13.112 22.612L3.16667 32.6068V25.3333H0V38H12.6667V34.8333H5.39323L15.388 24.888L13.112 22.612ZM24.888 22.612L22.612 24.888L32.6068 34.8333H25.3333V38H38V25.3333H34.8333V32.6068L24.888 22.612Z" fill="white"/>
</g>
<defs>
<clipPath id="clip0_1306_5026">
<rect width="38" height="38" fill="white"/>
</clipPath>
</defs>
</svg>
