<svg width="216" height="36" viewBox="0 0 216 36" fill="none" xmlns="http://www.w3.org/2000/svg">
<path d="M14.7059 8.14478L9.14443 23.7306L3.58294 8.14478H0L7.83223 28.4685H10.4566L18.2889 8.14478H14.7059Z" fill="#F78E31"/>
<path d="M66.1892 11.6509C65.7194 10.4889 64.9018 9.5006 63.8484 8.82147C62.8232 8.17448 61.5931 7.85099 60.1578 7.85099C58.8654 7.82837 57.5897 8.14597 56.4587 8.77192C55.5665 9.28909 54.8135 10.0156 54.2649 10.8889V0H50.8579V28.4686H54.2649V25.8374C54.7027 26.7047 55.3876 27.4229 56.2332 27.9013C57.2583 28.4709 58.5016 28.7556 59.963 28.7556C61.4245 28.7556 62.6905 28.4327 63.7613 27.7869C64.8353 27.1225 65.6765 26.141 66.1687 24.9779C66.7177 23.7512 66.9922 22.2761 66.9922 20.5527V16.1343C66.9922 14.3847 66.7246 12.8902 66.1892 11.6509ZM63.5853 20.5595C63.5853 22.2032 63.1741 23.4789 62.3517 24.3868C61.5293 25.2946 60.3606 25.7502 58.8456 25.7536C57.9838 25.7739 57.1335 25.5532 56.3904 25.1163C55.7159 24.7115 55.1692 24.1246 54.8133 23.4231C54.4414 22.6813 54.2533 21.8609 54.2649 21.0311V15.4884C54.2539 14.6724 54.4422 13.8659 54.8133 13.1391C55.1678 12.4437 55.7154 11.8653 56.3904 11.4732C57.139 11.053 57.9874 10.8434 58.8456 10.8667C60.3617 10.8667 61.5304 11.3268 62.3517 12.2472C63.1729 13.1676 63.5841 14.4695 63.5853 16.153V20.5595Z" fill="#F78E31"/>
<path d="M88.6872 19.7173V17.8959C88.6872 15.7807 88.3705 13.973 87.7372 12.4728C87.1039 10.9727 86.187 9.82735 84.9864 9.03684C83.7858 8.25203 82.3386 7.85962 80.6448 7.85962C78.8439 7.85962 77.3062 8.23209 76.0316 8.97704C74.743 9.72998 73.7197 10.8642 73.103 12.2234C72.431 13.6461 72.095 15.3626 72.095 17.3731V19.6643C72.095 21.5836 72.4441 23.225 73.1423 24.5885C73.8082 25.918 74.8726 27.0064 76.1871 27.7015C77.5198 28.4123 79.1253 28.7677 81.0036 28.7677C82.3108 28.7625 83.6034 28.4929 84.8036 27.9749C86.0546 27.4439 87.1943 26.6816 88.1627 25.7281L85.8902 23.4967C85.2314 24.1453 84.4533 24.6605 83.599 25.0139C82.7729 25.3661 81.8846 25.5491 80.9865 25.5521C79.172 25.5521 77.7687 25.0498 76.7765 24.0451C75.7844 23.0405 75.2889 21.6041 75.2901 19.7361V19.7173H88.6872ZM76.6843 12.5805C77.616 11.504 78.9362 10.9653 80.6448 10.9641C82.1324 10.9641 83.2977 11.4704 84.1406 12.4831C84.9835 13.4957 85.4306 14.9195 85.4819 16.7546V16.8519H75.3037C75.3481 15.0357 75.8043 13.6022 76.6843 12.5805Z" fill="#F78E31"/>
<path d="M108.773 8.09046C107.734 7.30109 106.367 6.9064 104.672 6.9064C102.988 6.88155 101.322 7.26742 99.82 8.03066C98.3662 8.79228 97.1284 9.90897 96.2217 11.277C95.2558 12.6985 94.5661 14.4151 94.1526 16.4267L93.681 18.7162C93.2846 20.6355 93.2954 22.2769 93.7135 23.6404C94.0859 24.9475 94.9458 26.0618 96.1158 26.7534C97.3015 27.4653 98.8341 27.8213 100.714 27.8213C102.072 27.8053 103.415 27.5364 104.674 27.0285C106.061 26.4865 107.353 25.73 108.505 24.7868L106.694 22.5537C105.912 23.1955 105.033 23.7083 104.09 24.0727C103.225 24.4151 102.305 24.5953 101.375 24.604C99.5603 24.604 98.2606 24.1011 97.4758 23.0953C96.691 22.0895 96.4917 20.656 96.8778 18.7948V18.776H110.27L110.646 16.9546C111.081 14.8394 111.138 13.0317 110.817 11.5316C110.495 10.0314 109.814 8.88438 108.773 8.09046ZM107.671 15.815L107.651 15.9141H97.4775C97.8995 14.0859 98.6496 12.6575 99.7397 11.6426C100.89 10.5651 102.32 10.0263 104.028 10.0263C105.516 10.0263 106.577 10.532 107.211 11.5435C107.846 12.555 107.999 13.9788 107.671 15.815Z" fill="#469A20"/>
<path d="M127.597 6.90597C126.226 6.89975 124.874 7.22199 123.653 7.8457C122.623 8.38629 121.71 9.12552 120.967 10.0207L121.548 7.19985H118.138L113.95 27.5321H117.357L120.015 14.6288C120.308 13.1913 120.945 12.079 121.926 11.2919C122.906 10.5048 124.139 10.113 125.623 10.1164C127.164 10.1164 128.264 10.5607 128.922 11.4491C129.581 12.3376 129.744 13.5906 129.411 15.208L126.872 27.5236H130.279L132.821 15.1892C133.365 12.5512 133.181 10.5111 132.271 9.06905C131.361 7.627 129.803 6.90597 127.597 6.90597Z" fill="#469A20"/>
<path d="M152.672 8.09057C151.633 7.3012 150.266 6.90652 148.571 6.90652C146.886 6.88173 145.22 7.26759 143.717 8.03077C142.267 8.7943 141.033 9.91077 140.129 11.2771C139.158 12.6964 138.467 14.4118 138.055 16.4234L137.583 18.7129C137.187 20.6322 137.198 22.2736 137.616 23.6371C137.988 24.9442 138.848 26.0585 140.018 26.7501C141.204 27.462 142.736 27.818 144.614 27.818C145.973 27.8022 147.316 27.5333 148.576 27.0252C149.963 26.4832 151.255 25.7267 152.407 24.7835L150.592 22.5538C149.81 23.195 148.931 23.7077 147.988 24.0728C147.124 24.4152 146.203 24.5954 145.274 24.6041C143.459 24.6041 142.159 24.1012 141.374 23.0954C140.59 22.0897 140.39 20.6561 140.775 18.7949V18.7761H154.167L154.543 16.9548C154.979 14.8395 155.036 13.0318 154.714 11.5317C154.391 10.0315 153.711 8.8845 152.672 8.09057ZM151.568 15.8151L151.549 15.9142H141.376C141.797 14.0917 142.551 12.6679 143.638 11.6427C144.789 10.5652 146.218 10.0264 147.927 10.0264C149.416 10.0264 150.477 10.5322 151.11 11.5436C151.743 12.5551 151.896 13.979 151.568 15.8151Z" fill="#469A20"/>
<path d="M173.831 7.30757C173.051 7.02612 172.227 6.89003 171.398 6.90605C170.053 6.91303 168.732 7.25979 167.557 7.91412C166.533 8.47859 165.615 9.21821 164.846 10.0994L165.444 7.1948H162.037L157.847 27.5271H161.254L163.906 14.6597C164.2 13.237 164.837 12.1241 165.818 11.3211C166.799 10.518 168.033 10.1165 169.522 10.1165C170.193 10.0989 170.861 10.2121 171.489 10.4497C171.994 10.642 172.429 10.9835 172.736 11.4287L175.555 8.49163C175.087 7.96083 174.495 7.55407 173.831 7.30757Z" fill="#469A20"/>
<path d="M190.35 9.86083C189.981 9.00958 189.366 8.28795 188.584 7.78831C187.626 7.18688 186.454 6.88674 185.069 6.88788C183.71 6.87009 182.37 7.20506 181.179 7.86007C179.982 8.5427 178.977 9.51579 178.255 10.6895C177.465 11.9299 176.89 13.4244 176.53 15.1729L175.612 19.6152C175.259 21.3386 175.229 22.8194 175.522 24.0575C175.814 25.2957 176.423 26.2354 177.348 26.8767C178.273 27.5226 179.473 27.8461 180.948 27.8472C182.448 27.8472 183.767 27.5436 184.903 26.9365C185.831 26.4374 186.634 25.7368 187.254 24.8862L186.742 27.4081C186.388 29.1326 185.643 30.4676 184.507 31.413C183.371 32.3585 181.948 32.8317 180.236 32.8329C179.401 32.8428 178.58 32.6299 177.855 32.2161C177.142 31.8023 176.562 31.1943 176.181 30.4631L173.447 32.539C173.915 33.5802 174.73 34.426 175.754 34.931C176.837 35.5006 178.147 35.7853 179.684 35.7853C181.526 35.7853 183.17 35.4396 184.616 34.7482C186.059 34.0609 187.302 33.0164 188.228 31.7138C189.189 30.3811 189.861 28.7818 190.245 26.916L194.309 7.19884H190.902L190.35 9.86083ZM189.382 14.5629L188.247 20.0646C188.073 20.9325 187.716 21.7536 187.202 22.4737C186.697 23.1827 186.037 23.7671 185.272 24.1823C184.478 24.6129 183.587 24.8323 182.684 24.8196C181.17 24.8196 180.095 24.364 179.46 23.4527C178.824 22.5415 178.677 21.2589 179.019 19.6049L179.928 15.207C180.27 13.5224 180.95 12.217 181.968 11.2909C182.986 10.3649 184.25 9.90469 185.759 9.91038C186.713 9.91038 187.493 10.116 188.1 10.5272C188.695 10.923 189.13 11.516 189.33 12.2016C189.546 12.9747 189.564 13.7897 189.382 14.5714V14.5629Z" fill="#469A20"/>
<path d="M212.144 7.19995L203.509 23.3855L201.117 7.19995H197.631L201.019 28.0448L199.888 30.1669C199.312 31.1203 198.72 31.7895 198.113 32.1745C197.43 32.5793 196.645 32.7797 195.851 32.752H195.048L194.378 35.9983H195.181C196.131 36.0153 197.079 35.8968 197.995 35.6463C198.777 35.416 199.5 35.0184 200.114 34.4811C200.802 33.8523 201.373 33.1066 201.802 32.2787L215.624 7.19995H212.144Z" fill="#469A20"/>
<path d="M47.027 5.76485C46.4843 5.29658 45.8187 4.99388 45.109 4.89269C44.3994 4.79149 43.6757 4.89606 43.0237 5.19397C42.3718 5.49188 41.819 5.97063 41.431 6.57336C41.0431 7.17609 40.8362 7.87749 40.8351 8.59428C40.8301 9.85343 40.3256 11.0591 39.4323 11.9465L37.382 13.9969C37.1923 14.1879 36.9544 14.324 36.6936 14.3908C36.4328 14.4576 36.1588 14.4525 35.9006 14.3762C35.2488 14.1828 34.5567 14.1698 33.8981 14.3386C33.6575 14.4002 33.4051 14.3983 33.1655 14.333C32.9258 14.2677 32.7073 14.1413 32.5312 13.9661L30.5048 11.9465C29.6116 11.0591 29.107 9.85343 29.1021 8.59428C29.1021 7.85253 28.8818 7.12749 28.4692 6.51108C28.0566 5.89467 27.4702 5.41466 26.7845 5.13191C26.0987 4.84915 25.3445 4.7764 24.6173 4.92286C23.8902 5.06932 23.2229 5.4284 22.7001 5.95458C22.1772 6.48075 21.8224 7.15032 21.6806 7.8784C21.5388 8.60647 21.6164 9.36026 21.9036 10.0442C22.1907 10.7281 22.6745 11.3114 23.2935 11.72C23.9126 12.1286 24.639 12.3443 25.3807 12.3395C26.0019 12.3429 26.6163 12.4692 27.1884 12.7111C27.7605 12.9531 28.2791 13.3058 28.7142 13.7491L30.7868 15.8216C30.9574 15.9955 31.0816 16.2094 31.1478 16.4438C31.2141 16.6782 31.2204 16.9254 31.1661 17.1629C31.1084 17.4267 31.0792 17.6959 31.0789 17.9659C31.0784 18.6019 31.2401 19.2274 31.5486 19.7835C31.8571 20.3396 32.3024 20.8078 32.8422 21.1439C33.0592 21.2793 33.2383 21.4676 33.3626 21.6912C33.4869 21.9147 33.5524 22.1662 33.553 22.4219V26.2424C33.5571 27.5016 33.0612 28.711 32.1741 29.6049C31.6529 30.127 31.2977 30.7915 31.1529 31.515C31.0081 32.2384 31.0803 32.9884 31.3605 33.6709C31.6406 34.3535 32.1162 34.938 32.7274 35.3511C33.3387 35.7642 34.0584 35.9875 34.7961 35.9929C35.5338 35.9984 36.2567 35.7857 36.874 35.3816C37.4913 34.9776 37.9754 34.4001 38.2655 33.7218C38.5557 33.0435 38.6389 32.2946 38.5048 31.5691C38.3707 30.8436 38.0253 30.1739 37.5118 29.6442C36.6143 28.7381 36.1055 27.5177 36.0937 26.2424V22.4219C36.0943 22.166 36.16 21.9143 36.2846 21.6908C36.4093 21.4672 36.5887 21.279 36.8062 21.1439C37.4325 20.7515 37.9289 20.1828 38.2329 19.5091C38.5369 18.8354 38.6349 18.0869 38.5148 17.3577C38.4734 17.1213 38.4891 16.8785 38.5604 16.6494C38.6317 16.4203 38.7567 16.2115 38.9248 16.0403L41.2144 13.7491C41.6495 13.3058 42.1681 12.9531 42.7402 12.7111C43.3123 12.4692 43.9267 12.3429 44.5478 12.3395C45.3136 12.345 46.0625 12.1155 46.6937 11.682C47.3249 11.2485 47.808 10.6319 48.0779 9.91532C48.3477 9.19872 48.3913 8.41661 48.2028 7.67445C48.0143 6.9323 47.6027 6.26581 47.0236 5.76485H47.027Z" fill="#848482"/>
<path d="M25.4344 10.5387C26.5092 10.5387 27.3805 9.66737 27.3805 8.59257C27.3805 7.51778 26.5092 6.64648 25.4344 6.64648C24.3596 6.64648 23.4883 7.51778 23.4883 8.59257C23.4883 9.66737 24.3596 10.5387 25.4344 10.5387Z" fill="#469A20"/>
<path d="M34.8582 20.0225C35.933 20.0225 36.8043 19.1513 36.8043 18.0765C36.8043 17.0017 35.933 16.1304 34.8582 16.1304C33.7834 16.1304 32.9121 17.0017 32.9121 18.0765C32.9121 19.1513 33.7834 20.0225 34.8582 20.0225Z" fill="#F78E31"/>
<path d="M34.8582 34.3604C35.933 34.3604 36.8043 33.4891 36.8043 32.4144C36.8043 31.3396 35.933 30.4683 34.8582 30.4683C33.7834 30.4683 32.9121 31.3396 32.9121 32.4144C32.9121 33.4891 33.7834 34.3604 34.8582 34.3604Z" fill="#F78E31"/>
<path d="M44.8021 10.4015C45.8769 10.4015 46.7481 9.53016 46.7481 8.45537C46.7481 7.38057 45.8769 6.50928 44.8021 6.50928C43.7273 6.50928 42.856 7.38057 42.856 8.45537C42.856 9.53016 43.7273 10.4015 44.8021 10.4015Z" fill="#469A20"/>
</svg>
