<svg width="64" height="64" viewBox="0 0 64 64" fill="none" xmlns="http://www.w3.org/2000/svg">
<circle cx="32" cy="32" r="32" fill="#F78E31"/>
<path d="M46.8793 13.9291C46.2102 13.3518 45.3894 12.9785 44.5145 12.8538C43.6396 12.729 42.7472 12.8579 41.9434 13.2252C41.1395 13.5926 40.458 14.1828 39.9796 14.926C39.5013 15.6692 39.2463 16.534 39.2448 17.4178C39.2387 18.9703 38.6167 20.4569 37.5153 21.5511L34.9873 24.0791C34.7534 24.3146 34.4601 24.4824 34.1386 24.5648C33.817 24.6471 33.4791 24.6409 33.1608 24.5468C32.3572 24.3083 31.5039 24.2923 30.6919 24.5004C30.3952 24.5764 30.0839 24.574 29.7885 24.4935C29.4931 24.413 29.2236 24.2571 29.0065 24.0412L26.5081 21.5511C25.4067 20.4569 24.7846 18.9703 24.7785 17.4178C24.7785 16.5032 24.5069 15.6092 23.9982 14.8492C23.4894 14.0892 22.7665 13.4973 21.921 13.1487C21.0755 12.8001 20.1455 12.7104 19.249 12.891C18.3524 13.0715 17.5297 13.5143 16.885 14.1631C16.2404 14.8118 15.803 15.6374 15.6281 16.5351C15.4533 17.4328 15.549 18.3622 15.903 19.2055C16.257 20.0487 16.8535 20.7679 17.6168 21.2717C18.38 21.7756 19.2757 22.0414 20.1902 22.0356C20.9561 22.0398 21.7136 22.1955 22.419 22.4938C23.1244 22.7921 23.7638 23.227 24.3003 23.7736L26.8557 26.329C27.066 26.5433 27.2191 26.8071 27.3008 27.0961C27.3826 27.3851 27.3903 27.69 27.3233 27.9827C27.2522 28.308 27.2162 28.6399 27.2159 28.9729C27.2153 29.757 27.4146 30.5283 27.795 31.2139C28.1754 31.8995 28.7243 32.4768 29.3899 32.8913C29.6575 33.0582 29.8783 33.2904 30.0316 33.566C30.1848 33.8417 30.2656 34.1517 30.2663 34.4671V39.1776C30.2714 40.7302 29.6599 42.2214 28.5662 43.3235C27.9236 43.9673 27.4856 44.7867 27.3071 45.6786C27.1286 46.5706 27.2176 47.4954 27.563 48.3369C27.9084 49.1785 28.4947 49.8992 29.2484 50.4085C30.0021 50.9179 30.8894 51.1932 31.799 51.1999C32.7086 51.2066 33.5999 50.9444 34.361 50.4462C35.1221 49.948 35.719 49.236 36.0767 48.3996C36.4345 47.5633 36.5371 46.6399 36.3718 45.7454C36.2064 44.8509 35.7805 44.0252 35.1474 43.372C34.0408 42.2548 33.4135 40.75 33.3989 39.1776V34.4671C33.3996 34.1515 33.4806 33.8412 33.6343 33.5655C33.788 33.2899 34.0093 33.0578 34.2774 32.8913C35.0496 32.4075 35.6616 31.7062 36.0364 30.8756C36.4112 30.0449 36.5322 29.122 36.384 28.2229C36.333 27.9315 36.3523 27.6321 36.4403 27.3496C36.5282 27.0671 36.6822 26.8097 36.8896 26.5987L39.7125 23.7736C40.249 23.227 40.8884 22.7921 41.5938 22.4938C42.2992 22.1955 43.0567 22.0398 43.8226 22.0356C44.7667 22.0423 45.6901 21.7594 46.4684 21.2249C47.2466 20.6904 47.8423 19.9301 48.175 19.0466C48.5077 18.163 48.5615 17.1987 48.329 16.2836C48.0966 15.3686 47.5891 14.5468 46.8751 13.9291H46.8793Z" fill="white"/>
<path d="M20.2574 19.8154C21.5826 19.8154 22.6568 18.7411 22.6568 17.4159C22.6568 16.0906 21.5826 15.0164 20.2574 15.0164C18.9322 15.0164 17.8579 16.0906 17.8579 17.4159C17.8579 18.7411 18.9322 19.8154 20.2574 19.8154Z" fill="#469A20"/>
<path d="M31.8773 31.5077C33.2024 31.5077 34.2767 30.4334 34.2767 29.1082C34.2767 27.783 33.2024 26.7087 31.8773 26.7087C30.5521 26.7087 29.4778 27.783 29.4778 29.1082C29.4778 30.4334 30.5521 31.5077 31.8773 31.5077Z" fill="#F78E31"/>
<path d="M31.8773 49.1877C33.2024 49.1877 34.2767 48.1134 34.2767 46.7882C34.2767 45.463 33.2024 44.3887 31.8773 44.3887C30.5521 44.3887 29.4778 45.463 29.4778 46.7882C29.4778 48.1134 30.5521 49.1877 31.8773 49.1877Z" fill="#F78E31"/>
<path d="M44.1358 19.6449C45.461 19.6449 46.5353 18.5707 46.5353 17.2454C46.5353 15.9202 45.461 14.8459 44.1358 14.8459C42.8106 14.8459 41.7363 15.9202 41.7363 17.2454C41.7363 18.5707 42.8106 19.6449 44.1358 19.6449Z" fill="#469A20"/>
</svg>
