<svg width="1320" height="77" viewBox="0 0 1320 77" fill="none" xmlns="http://www.w3.org/2000/svg">
<path d="M0 68H983.477C994.523 68 1003.48 59.0457 1003.48 48V28C1003.48 16.9543 1012.43 8 1023.48 8H1370" stroke="#E9ECEF"/>
<circle cx="3" cy="3" r="3" transform="matrix(1 0 0 -1 992 68)" fill="#F78E31"/>
<circle cx="9" cy="9" r="8.5" transform="matrix(1 0 0 -1 0 77)" fill="white" stroke="#F78E31" stroke-linejoin="round" stroke-dasharray="4 4"/>
<circle cx="5" cy="5" r="5" transform="matrix(1 0 0 -1 4 73)" fill="#F78E31"/>
<path d="M1179.5 8.5H1199.5" stroke="#F78E31" stroke-width="6" stroke-linecap="round"/>
<path d="M330 68H350" stroke="#F78E31" stroke-width="6" stroke-linecap="round"/>
<circle cx="9" cy="9" r="8.5" transform="matrix(1 0 0 -1 662 77)" fill="white" stroke="#469A20" stroke-linejoin="round" stroke-dasharray="4 4"/>
<circle cx="5" cy="5" r="5" transform="matrix(1 0 0 -1 666 73)" fill="#469A20"/>
</svg>
