<svg width="180" height="30" viewBox="0 0 180 30" fill="none" xmlns="http://www.w3.org/2000/svg">
<path d="M12.2548 6.78711L7.62026 19.7752L2.98574 6.78711H0L6.52677 23.7234H8.71375L15.2405 6.78711H12.2548Z" fill="#F78E31"/>
<path d="M55.1577 9.709C54.7663 8.74067 54.0849 7.9171 53.2071 7.35116C52.3528 6.81201 51.3277 6.54243 50.1317 6.54243C49.0546 6.52359 47.9916 6.78825 47.0491 7.30987C46.3056 7.74084 45.6781 8.3463 45.2209 9.07398V0H42.3818V23.7236H45.2209V21.5309C45.5857 22.2537 46.1565 22.8522 46.8612 23.2509C47.7154 23.7255 48.7515 23.9628 49.9693 23.9628C51.1872 23.9628 52.2422 23.6937 53.1345 23.1555C54.0295 22.6019 54.7305 21.784 55.1406 20.8148C55.5982 19.7925 55.8269 18.5632 55.8269 17.1271V13.4451C55.8269 11.9871 55.6039 10.7417 55.1577 9.709ZM52.9878 17.1328C52.9878 18.5025 52.6452 19.5656 51.9598 20.3221C51.2745 21.0786 50.3006 21.4583 49.0382 21.4612C48.32 21.4781 47.6114 21.2941 46.9921 20.9301C46.4301 20.5928 45.9746 20.1037 45.678 19.5191C45.3681 18.9009 45.2113 18.2172 45.2209 17.5257V12.9069C45.2118 12.2269 45.3687 11.5549 45.678 10.9491C45.9734 10.3696 46.4297 9.88764 46.9921 9.56092C47.616 9.21077 48.323 9.0361 49.0382 9.05547C50.3016 9.05547 51.2755 9.43895 51.9598 10.2059C52.6442 10.9729 52.9869 12.0578 52.9878 13.4608V17.1328Z" fill="#F78E31"/>
<path d="M73.9058 16.4306V14.9128C73.9058 13.1501 73.6419 11.6437 73.1141 10.3936C72.5864 9.14351 71.8223 8.18908 70.8218 7.53033C69.8213 6.87632 68.6154 6.54932 67.2039 6.54932C65.7032 6.54932 64.4217 6.85971 63.3596 7.48049C62.2857 8.10793 61.433 9.05315 60.9192 10.1857C60.3591 11.3713 60.0791 12.8018 60.0791 14.4771V16.3865C60.0791 17.9859 60.37 19.3537 60.9519 20.4899C61.5068 21.5978 62.3938 22.5048 63.4891 23.0841C64.5997 23.6764 65.9376 23.9726 67.5029 23.9726C68.5922 23.9683 69.6693 23.7435 70.6694 23.3119C71.712 22.8694 72.6617 22.2342 73.4687 21.4396L71.575 19.5801C71.0259 20.1206 70.3776 20.5499 69.6657 20.8444C68.9772 21.1379 68.237 21.2904 67.4886 21.2929C65.9765 21.2929 64.8071 20.8743 63.9804 20.0371C63.1536 19.1999 62.7407 18.003 62.7416 16.4463V16.4306H73.9058ZM63.9035 10.4833C64.6799 9.58632 65.7801 9.13734 67.2039 9.13639C68.4435 9.13639 69.4146 9.55831 70.117 10.4022C70.8194 11.246 71.192 12.4325 71.2347 13.9617V14.0429H62.753C62.79 12.5293 63.1702 11.3348 63.9035 10.4833Z" fill="#F78E31"/>
<path d="M90.6429 6.74204C89.7772 6.08424 88.6382 5.75534 87.2258 5.75534C85.8218 5.73463 84.4339 6.05618 83.1821 6.69221C81.9706 7.32689 80.9392 8.25745 80.1836 9.39746C79.3786 10.5821 78.8039 12.0125 78.4593 13.6888L78.0664 15.5968C77.736 17.1962 77.745 18.564 78.0934 19.7002C78.4038 20.7894 79.1203 21.718 80.0953 22.2944C81.0834 22.8876 82.3606 23.1843 83.9268 23.1843C85.0584 23.1709 86.1776 22.9469 87.2272 22.5236C88.3825 22.0719 89.4597 21.4415 90.4194 20.6556L88.9101 18.7946C88.2589 19.3295 87.5264 19.7568 86.7402 20.0604C86.0197 20.3458 85.2528 20.4959 84.4778 20.5032C82.9657 20.5032 81.8827 20.0841 81.2287 19.246C80.5746 18.4078 80.4085 17.2133 80.7303 15.6622V15.6466H91.8902L92.2034 14.1288C92.566 12.3661 92.6135 10.8597 92.3458 9.60961C92.0781 8.35949 91.5105 7.40364 90.6429 6.74204ZM89.7246 13.1791L89.7075 13.2617H81.2301C81.5818 11.7382 82.2068 10.5479 83.1152 9.70215C84.0739 8.8042 85.2652 8.35522 86.689 8.35522C87.9286 8.35522 88.8128 8.77667 89.3415 9.61957C89.8703 10.4625 89.9979 11.649 89.7246 13.1791Z" fill="#469A20"/>
<path d="M106.331 5.75496C105.188 5.74977 104.061 6.0183 103.044 6.53805C102.186 6.98855 101.425 7.60457 100.806 8.35057L101.29 5.99985H98.4483L94.9585 22.9433H97.7976L100.013 12.1906C100.257 10.9927 100.788 10.0658 101.605 9.40989C102.422 8.75399 103.449 8.42746 104.686 8.43031C105.97 8.43031 106.887 8.8005 107.435 9.54088C107.984 10.2813 108.12 11.3254 107.843 12.6733L105.727 22.9361H108.566L110.685 12.6576C111.137 10.4592 110.984 8.75921 110.226 7.55751C109.468 6.35581 108.169 5.75496 106.331 5.75496Z" fill="#469A20"/>
<path d="M127.225 6.74203C126.359 6.08423 125.22 5.75533 123.808 5.75533C122.403 5.73468 121.015 6.05622 119.763 6.6922C118.555 7.32847 117.526 8.25885 116.773 9.39745C115.964 10.5802 115.388 12.0097 115.044 13.686L114.651 15.5939C114.321 17.1933 114.33 18.5611 114.678 19.6973C114.989 20.7866 115.705 21.7151 116.68 22.2915C117.668 22.8848 118.945 23.1814 120.51 23.1814C121.642 23.1682 122.762 22.9442 123.812 22.5208C124.967 22.0691 126.045 21.4387 127.004 20.6527L125.492 18.7946C124.841 19.3289 124.108 19.7562 123.322 20.0604C122.602 20.3458 121.835 20.4959 121.06 20.5032C119.548 20.5032 118.465 20.0841 117.811 19.246C117.157 18.4078 116.99 17.2133 117.311 15.6622V15.6466H128.471L128.784 14.1288C129.148 12.3661 129.195 10.8597 128.926 9.6096C128.658 8.35949 128.091 7.40363 127.225 6.74203ZM126.305 13.1791L126.29 13.2617H117.812C118.162 11.743 118.791 10.5564 119.697 9.70215C120.656 8.80419 121.847 8.35522 123.271 8.35522C124.512 8.35522 125.396 8.77667 125.924 9.61957C126.451 10.4625 126.579 11.649 126.305 13.1791Z" fill="#469A20"/>
<path d="M144.859 6.09005C144.209 5.85551 143.522 5.7421 142.831 5.75545C141.711 5.76126 140.61 6.05023 139.631 6.5955C138.777 7.06589 138.012 7.68223 137.371 8.41656L137.869 5.99607H135.03L131.539 22.9395H134.378L136.588 12.2167C136.833 11.0312 137.364 10.1038 138.181 9.43459C138.998 8.7654 140.027 8.4308 141.268 8.4308C141.827 8.41614 142.384 8.51044 142.907 8.70844C143.328 8.86874 143.69 9.15326 143.946 9.52429L146.295 7.07675C145.905 6.63442 145.412 6.29546 144.859 6.09005Z" fill="#469A20"/>
<path d="M158.624 8.21726C158.316 7.50788 157.803 6.90653 157.152 6.49017C156.353 5.98899 155.377 5.73887 154.223 5.73982C153.09 5.725 151.973 6.00413 150.981 6.54997C149.984 7.11883 149.146 7.92972 148.545 8.90781C147.886 9.9415 147.407 11.1869 147.107 12.6439L146.342 16.3458C146.048 17.782 146.023 19.016 146.267 20.0477C146.511 21.0795 147.018 21.8626 147.789 22.397C148.559 22.9352 149.559 23.2048 150.789 23.2058C152.039 23.2058 153.137 22.9528 154.085 22.4469C154.857 22.031 155.527 21.4471 156.044 20.7383L155.617 22.8398C155.322 24.277 154.701 25.3894 153.754 26.1773C152.808 26.9651 151.622 27.3595 150.195 27.3605C149.5 27.3688 148.815 27.1913 148.212 26.8465C147.617 26.5016 147.133 25.995 146.816 25.3856L144.538 27.1156C144.928 27.9832 145.607 28.688 146.46 29.1089C147.363 29.5835 148.455 29.8208 149.735 29.8208C151.27 29.8208 152.64 29.5327 153.846 28.9566C155.048 28.3838 156.084 27.5134 156.856 26.4279C157.656 25.3173 158.216 23.9846 158.536 22.4298L161.923 5.99895H159.084L158.624 8.21726ZM157.817 12.1356L156.871 16.7203C156.726 17.4436 156.429 18.1278 156 18.7279C155.579 19.3187 155.03 19.8057 154.392 20.1517C153.731 20.5105 152.988 20.6934 152.235 20.6828C150.974 20.6828 150.078 20.3031 149.548 19.5437C149.019 18.7843 148.896 17.7155 149.181 16.3373L149.939 12.6724C150.223 11.2685 150.79 10.1807 151.639 9.40899C152.487 8.63728 153.54 8.2538 154.798 8.25855C155.593 8.25855 156.243 8.42988 156.749 8.77255C157.244 9.10235 157.607 9.59652 157.774 10.1679C157.954 10.8122 157.968 11.4913 157.817 12.1427V12.1356Z" fill="#469A20"/>
<path d="M176.785 6L169.589 19.4878L167.596 6H164.691L167.515 23.3706L166.572 25.1389C166.092 25.9334 165.599 26.4911 165.093 26.8119C164.523 27.1493 163.869 27.3163 163.208 27.2932H162.539L161.98 29.9984H162.65C163.441 30.0126 164.231 29.9138 164.995 29.7051C165.647 29.5132 166.249 29.1818 166.76 28.7341C167.334 28.2101 167.81 27.5887 168.167 26.8988L179.686 6H176.785Z" fill="#469A20"/>
<path d="M39.189 4.80412C38.7368 4.4139 38.1821 4.16165 37.5907 4.07732C36.9994 3.99299 36.3963 4.08013 35.853 4.32839C35.3097 4.57665 34.849 4.9756 34.5258 5.47787C34.2025 5.98014 34.0301 6.56464 34.0291 7.16196C34.025 8.21124 33.6046 9.21597 32.8602 9.95548L31.1516 11.6641C30.9935 11.8232 30.7953 11.9367 30.5779 11.9923C30.3606 12.048 30.1323 12.0438 29.9171 11.9802C29.374 11.819 28.7973 11.8082 28.2484 11.9488C28.0479 12.0002 27.8376 11.9986 27.6379 11.9442C27.4382 11.8898 27.2561 11.7844 27.1094 11.6384L25.4207 9.95548C24.6763 9.21597 24.2559 8.21124 24.2518 7.16196C24.2518 6.54383 24.0682 5.93964 23.7244 5.42597C23.3805 4.9123 22.8919 4.51229 22.3205 4.27667C21.749 4.04104 21.1205 3.98041 20.5145 4.10246C19.9086 4.22451 19.3525 4.52374 18.9168 4.96222C18.4812 5.4007 18.1855 5.95867 18.0673 6.56539C17.9492 7.17211 18.0138 7.80026 18.2531 8.37019C18.4924 8.94012 18.8955 9.42616 19.4114 9.7667C19.9272 10.1072 20.5326 10.2869 21.1507 10.283C21.6683 10.2858 22.1803 10.391 22.657 10.5926C23.1338 10.7942 23.5659 11.0882 23.9286 11.4576L25.6557 13.1847C25.7978 13.3295 25.9013 13.5078 25.9565 13.7031C26.0118 13.8985 26.017 14.1045 25.9717 14.3024C25.9237 14.5222 25.8994 14.7466 25.8991 14.9716C25.8987 15.5015 26.0334 16.0228 26.2905 16.4862C26.5476 16.9496 26.9186 17.3398 27.3685 17.6199C27.5493 17.7327 27.6985 17.8896 27.8021 18.0759C27.9057 18.2622 27.9603 18.4717 27.9608 18.6849V21.8685C27.9642 22.9179 27.551 23.9258 26.8118 24.6706C26.3775 25.1057 26.0814 25.6595 25.9608 26.2623C25.8401 26.8652 25.9003 27.4902 26.1337 28.059C26.3672 28.6277 26.7635 29.1148 27.2728 29.4591C27.7822 29.8034 28.3819 29.9894 28.9967 29.994C29.6115 29.9985 30.2139 29.8213 30.7283 29.4845C31.2427 29.1478 31.6461 28.6666 31.8879 28.1014C32.1297 27.5361 32.199 26.912 32.0873 26.3075C31.9756 25.7029 31.6877 25.1448 31.2598 24.7034C30.5119 23.9483 30.0879 22.9313 30.078 21.8685V18.6849C30.0785 18.4716 30.1333 18.2619 30.2371 18.0756C30.341 17.8893 30.4906 17.7325 30.6718 17.6199C31.1937 17.2929 31.6073 16.8189 31.8607 16.2575C32.114 15.6962 32.1957 15.0724 32.0956 14.4647C32.0611 14.2677 32.0742 14.0654 32.1336 13.8745C32.193 13.6836 32.2971 13.5096 32.4373 13.3669L34.3452 11.4576C34.7078 11.0882 35.14 10.7942 35.6167 10.5926C36.0935 10.391 36.6054 10.2858 37.1231 10.283C37.7611 10.2875 38.3853 10.0963 38.9113 9.73504C39.4373 9.37381 39.8399 8.85997 40.0647 8.26281C40.2896 7.66565 40.3259 7.01389 40.1688 6.39544C40.0117 5.77698 39.6688 5.22158 39.1862 4.80412H39.189Z" fill="#848482"/>
<path d="M21.1959 8.78203C22.0916 8.78203 22.8177 8.05595 22.8177 7.1603C22.8177 6.26465 22.0916 5.53857 21.1959 5.53857C20.3003 5.53857 19.5742 6.26465 19.5742 7.1603C19.5742 8.05595 20.3003 8.78203 21.1959 8.78203Z" fill="#469A20"/>
<path d="M29.0495 16.6853C29.9451 16.6853 30.6712 15.9593 30.6712 15.0636C30.6712 14.168 29.9451 13.4419 29.0495 13.4419C28.1538 13.4419 27.4277 14.168 27.4277 15.0636C27.4277 15.9593 28.1538 16.6853 29.0495 16.6853Z" fill="#F78E31"/>
<path d="M29.0495 28.6336C29.9451 28.6336 30.6712 27.9075 30.6712 27.0119C30.6712 26.1162 29.9451 25.3901 29.0495 25.3901C28.1538 25.3901 27.4277 26.1162 27.4277 27.0119C27.4277 27.9075 28.1538 28.6336 29.0495 28.6336Z" fill="#F78E31"/>
<path d="M37.3346 8.66777C38.2303 8.66777 38.9563 7.9417 38.9563 7.04604C38.9563 6.15039 38.2303 5.42432 37.3346 5.42432C36.439 5.42432 35.7129 6.15039 35.7129 7.04604C35.7129 7.9417 36.439 8.66777 37.3346 8.66777Z" fill="#469A20"/>
</svg>
