<svg width="64" height="75" viewBox="0 0 64 75" fill="none" xmlns="http://www.w3.org/2000/svg">
<path d="M62.7717 0C63.1986 4.07609e-05 63.5869 0.388386 63.587 0.815217V74.1848C63.5869 74.6116 63.1986 74.9999 62.7717 75C42.1196 75 21.4674 75 0.815217 75C0.38837 74.9999 8.15217e-05 74.6116 0 74.1848V15.4891C8.15217e-05 15.0623 0.38837 14.674 0.815217 14.6739H17.9348V0.815217C17.9349 0.388386 18.3232 4.07609e-05 18.75 0H62.7717ZM61.9565 1.63043H19.5652C19.5652 25.5436 19.5652 49.4513 19.5652 73.3696H30.9783V57.8804C30.9783 57.4536 31.3666 57.0652 31.7935 57.0652H49.7283C50.1551 57.0652 50.5434 57.4536 50.5435 57.8804V73.3696H61.9565V1.63043ZM53.8804 7.8913C54.3073 7.89134 54.6956 8.27969 54.6957 8.70652V16.8587C54.6956 17.2855 54.3073 17.6739 53.8804 17.6739H45.7283C45.3014 17.6739 44.9131 17.2855 44.913 16.8587V8.70652C44.9131 8.27969 45.3014 7.89134 45.7283 7.8913H53.8804ZM35.7935 7.8913C36.2203 7.89134 36.6086 8.27969 36.6087 8.70652V16.8587C36.6086 17.2855 36.2203 17.6739 35.7935 17.6739H27.6413C27.2145 17.6739 26.8262 17.2855 26.8261 16.8587V8.70652C26.8262 8.27969 27.2145 7.89134 27.6413 7.8913H35.7935ZM53.0652 9.52174H46.5435V16.0435H53.0652V9.52174ZM34.9783 9.52174H28.4565V16.0435H34.9783V9.52174ZM17.9348 16.3043H1.63043V73.3696H17.9348V16.3043ZM13.8587 29.5652C14.2855 29.5653 14.6738 29.9536 14.6739 30.3804V38.5326C14.6738 38.9594 14.2855 39.3478 13.8587 39.3478H5.70652C5.27967 39.3478 4.89139 38.9594 4.8913 38.5326V30.3804C4.89139 29.9536 5.27967 29.5653 5.70652 29.5652H13.8587ZM13.0435 31.1957H6.52174V37.7174H13.0435V31.1957ZM53.8804 33.9783C54.3073 33.9783 54.6956 34.3666 54.6957 34.7935V42.9457C54.6956 43.3725 54.3073 43.7608 53.8804 43.7609H45.7283C45.3014 43.7608 44.9131 43.3725 44.913 42.9457V34.7935C44.9131 34.3666 45.3014 33.9783 45.7283 33.9783H53.8804ZM35.7935 33.9783C36.2203 33.9783 36.6086 34.3666 36.6087 34.7935V42.9457C36.6086 43.3725 36.2203 43.7608 35.7935 43.7609H27.6413C27.2145 43.7608 26.8262 43.3725 26.8261 42.9457V34.7935C26.8262 34.3666 27.2145 33.9783 27.6413 33.9783H35.7935ZM53.0652 35.6087H46.5435V42.1304H53.0652V35.6087ZM34.9783 35.6087H28.4565V42.1304H34.9783V35.6087ZM13.8587 48.6522C14.2855 48.6522 14.6738 49.0405 14.6739 49.4674V57.6196C14.6738 58.0464 14.2855 58.4347 13.8587 58.4348H5.70652C5.27967 58.4347 4.89139 58.0464 4.8913 57.6196V49.4674C4.89139 49.0405 5.27967 48.6522 5.70652 48.6522H13.8587ZM13.0435 50.2826H6.52174V56.8043H13.0435V50.2826ZM48.913 58.6957H41.5761V73.3696H48.913V58.6957ZM39.9457 58.6957H32.6087V73.3696H39.9457V58.6957Z" fill="#F78E31"/>
</svg>
