<svg width="72" height="60" viewBox="0 0 72 60" fill="none" xmlns="http://www.w3.org/2000/svg">
<path d="M70.3725 57.8347H63.8983V11.7135C63.8983 11.1073 63.4219 10.6309 62.8156 10.6309H50.5383C49.932 10.6309 49.4557 11.1073 49.4557 11.7135V57.8564H42.9597V27.8451C42.9597 27.2388 42.4834 26.7625 41.8771 26.7625H29.5998C28.9935 26.7625 28.5171 27.2388 28.5171 27.8451V51.4037C28.5171 52.01 28.9935 52.4864 29.5998 52.4864C30.2061 52.4864 30.6824 52.01 30.6824 51.4037V28.9278H40.7944V57.8347H22.0212V43.9767C22.0212 43.3704 21.5448 42.8941 20.9385 42.8941H8.66124C8.05495 42.8941 7.57858 43.3704 7.57858 43.9767V57.8347H1.08265C0.476368 57.8347 0 58.3111 0 58.9174C0 59.5236 0.476368 60 1.08265 60H70.3725C70.9788 60 71.4552 59.5236 71.4552 58.9174C71.4552 58.3111 70.9788 57.8347 70.3725 57.8347ZM19.8342 57.8347H9.72224V45.0594H19.8342V57.8347ZM61.733 57.8347H51.621V12.7962H61.733V57.8347Z" fill="#F78E31"/>
<path d="M7.86031 34.6883C8.07685 34.9048 8.35834 35.0131 8.61817 35.0131C8.87801 35.0131 9.18115 34.9048 9.37603 34.6883L40.3616 3.70269V11.671C40.3616 12.2773 40.838 12.7537 41.4443 12.7537C42.0505 12.7537 42.5269 12.2773 42.5269 11.671V1.08266C42.5269 0.931085 42.5053 0.801169 42.4403 0.67125C42.332 0.411412 42.1155 0.19488 41.8557 0.0866145C41.7258 0.0216551 41.5742 0 41.4443 0H30.8559C30.2496 0 29.7732 0.476369 29.7732 1.08266C29.7732 1.68894 30.2496 2.16531 30.8559 2.16531H38.8242L7.86031 33.1726C7.44891 33.584 7.44891 34.2769 7.86031 34.6883Z" fill="#F78E31"/>
</svg>
