<svg width="69" height="75" viewBox="0 0 69 75" fill="none" xmlns="http://www.w3.org/2000/svg">
<path d="M8.72216 0C3.91538 0 0 3.91466 0 8.72056C0 13.5264 3.91538 17.4411 8.72216 17.4411C13.529 17.4411 17.4443 13.5264 17.4443 8.72056C17.4443 3.91466 13.529 0 8.72216 0ZM8.72216 1.74408C12.5862 1.74408 15.6999 4.85725 15.6999 8.72056C15.6999 12.5839 12.5862 15.697 8.72216 15.697C4.85814 15.697 1.74443 12.5839 1.74443 8.72056C1.74443 4.85725 4.85814 1.74408 8.72216 1.74408ZM13.7919 23.5455C13.4945 23.6049 13.2362 23.8309 13.1378 24.1178L0.0545133 59.8719C-0.137319 60.3961 0.313976 61.0429 0.872216 61.0438H33.1442V73.2526C29.8985 73.2526 26.6178 73.2526 23.3863 73.2526C22.9296 73.2953 22.553 73.7498 22.5958 74.2064C22.6386 74.6631 23.0931 75.0395 23.5498 74.9967H44.483C44.9438 75.0054 45.3676 74.5854 45.3676 74.1247C45.3676 73.6639 44.9438 73.2461 44.483 73.2526H34.8887V61.0438H67.1607C67.7189 61.0438 68.1702 60.3961 67.9784 59.8719L54.8951 24.1178C54.7733 23.7852 54.4316 23.546 54.0774 23.5455H13.9555C13.9011 23.5402 13.8463 23.5402 13.7919 23.5455ZM14.5551 25.2896H26.1392L24.6674 34.8822H11.039L14.5551 25.2896ZM27.9109 25.2896H41.8664C42.3157 28.4785 42.8246 31.6887 43.311 34.8822H26.4663C26.9357 31.6873 27.4735 28.4787 27.9109 25.2896ZM43.6381 25.2896H53.4778L56.9939 34.8822H45.1099L43.6381 25.2896ZM24.3948 36.6262L22.7867 47.0909H6.59614L10.4121 36.6535C15.0544 36.5968 19.7382 36.6262 24.3948 36.6262ZM26.1938 36.6262H43.5836L45.1917 47.0909H24.5856L26.1938 36.6262ZM45.3825 36.6262C49.4607 36.6262 53.5465 36.6262 57.6208 36.6262L61.4367 47.0909H46.9907L45.3825 36.6262ZM22.5141 48.835C22.0018 52.3196 21.4055 55.8227 20.9332 59.2997H2.12603L5.94197 48.8623C11.4494 48.8039 16.9941 48.835 22.5141 48.835ZM24.313 48.835H45.4643L47.0724 59.2997H22.7049L24.313 48.835ZM47.2632 48.835C52.2 48.835 57.168 48.835 62.0909 48.835L65.9069 59.2997H48.8441C48.3583 55.8226 47.7963 52.3179 47.2632 48.835Z" fill="#F78E31"/>
</svg>
