<svg width="39" height="77" viewBox="0 0 39 77" fill="none" xmlns="http://www.w3.org/2000/svg">
<path d="M15.011 9.93719V1V0.8H15.211H24.7434H24.9434V1V9.31507C28.7225 9.69943 32.0258 10.743 35.0205 12.5015L15.011 9.93719ZM15.011 9.93719C6.9768 11.9664 1.98703 17.9584 1.98703 25.6907C1.98703 30.486 3.88224 33.9626 6.79444 36.6328C9.69826 39.2954 13.6108 41.1545 17.648 42.7367C20.6373 43.9489 22.7184 45.1477 24.0511 46.4623C25.3757 47.7688 25.9638 49.1921 25.9638 50.8778C25.9638 52.7172 25.1727 54.2504 23.7882 55.3285C22.3997 56.4099 20.4035 57.0407 17.9925 57.0407C14.0781 57.0407 10.0132 55.8277 6.84333 53.7142L6.84329 53.7141L4.6146 52.2289L4.40164 52.087L4.31539 52.328L0.811702 62.115L0.76073 62.2574L0.883841 62.3452L2.16983 63.2627L15.011 9.93719ZM23.6121 65.6311L23.6124 65.631C31.5924 63.7928 36.7239 57.7594 36.723 50.2722C36.723 46.416 35.6824 43.2545 33.4295 40.5573C31.1719 37.8544 27.6843 35.6027 22.7633 33.5954L22.7624 33.595C18.8925 31.9945 16.3699 30.6929 14.8156 29.3289C14.035 28.6439 13.4938 27.9394 13.1491 27.1691C12.8044 26.3988 12.6611 25.5737 12.6611 24.6546C12.6611 23.098 13.2014 21.4795 14.507 20.251C15.8127 19.0224 17.8613 18.2046 20.8388 18.2046C26.3196 18.2046 29.7609 20.1722 31.2242 21.0098L32.2069 21.5721L35.053 14.0565L34.3496 13.6438L34.3495 13.6438C31.3746 11.8977 28.0653 10.8944 24.2262 10.5799L24.226 10.5799L23.801 10.5447L23.6175 10.5295V10.3454V2.12593H16.336V10.8306V10.9904L16.1802 11.0256L15.8203 11.107L23.6121 65.6311ZM23.6121 65.6311L23.2529 65.7144L23.098 65.7503M23.6121 65.6311L23.098 65.7503M23.098 65.7503V65.9093M23.098 65.7503V65.9093M23.098 65.9093V74.8741M23.098 65.9093V74.8741M23.098 74.8741H15.7323V66.325V66.1396L15.5474 66.1256L15.1187 66.0932L15.1184 66.0931C10.4915 65.7506 5.82415 64.2466 2.93945 62.1845L2.93927 62.1844L2.34576 61.7611L5.077 54.1316L6.1066 54.8182L6.10664 54.8183C9.4922 57.075 13.8226 58.3676 17.9916 58.3676C20.7462 58.3676 23.0679 57.6262 24.7055 56.3143C26.3468 54.9994 27.2888 53.1199 27.2888 50.8787C27.2888 48.8631 26.6148 47.1661 25.1235 45.6478C23.6402 44.1377 21.354 42.81 18.139 41.5063L18.1368 41.5055C14.258 39.9853 10.5489 38.2237 7.81002 35.7438C5.07921 33.2711 3.31203 30.0838 3.31203 25.6917C3.31203 18.4607 8.08818 12.8688 15.82 11.1071L23.098 74.8741ZM36.5445 13.3951L35.0206 12.5016L2.16995 63.2628C5.12866 65.3768 9.7703 66.9205 14.4073 67.3621V76V76.2H14.6073H24.2249H24.4249V76V66.7985C32.708 64.6841 38.0508 58.2516 38.0508 50.2731C38.0503 46.119 36.9421 42.6897 34.5277 39.7715C32.1179 36.8588 28.4198 34.4708 23.2677 32.3697C19.6203 30.8608 17.2959 29.6735 15.883 28.4867C15.1797 27.896 14.7085 27.3103 14.4118 26.6911C14.1155 26.0727 13.9879 25.4095 13.9879 24.6556C13.9879 23.4169 14.4329 22.1426 15.4985 21.1764C16.5649 20.2095 18.2746 19.5315 20.8397 19.5315C25.9699 19.5315 29.1866 21.3724 30.5664 22.162L30.5672 22.1625L30.5672 22.1625L32.6941 23.3792L32.8974 23.4955L32.9804 23.2764L36.6304 13.6384L36.6902 13.4805L36.5445 13.3951Z" fill="white" stroke="white" stroke-width="0.4"/>
</svg>
